<?xml version="1.0" encoding="UTF-8" standalone="no" ?>
<!DOCTYPE svg PUBLIC "-//W3C//DTD SVG 1.1//EN" "http://www.w3.org/Graphics/SVG/1.1/DTD/svg11.dtd">
<svg xmlns="http://www.w3.org/2000/svg" xmlns:xlink="http://www.w3.org/1999/xlink" version="1.1" width="229.81025536913072" height="421.6588266524659" viewBox="135.09487231543466 45.679119523958036 229.81025536913072 421.6588266524659" xml:space="preserve">
<desc>Created with Fabric.js 5.3.0</desc>
<defs>
</defs>
<g transform="matrix(8.1475867522 0 0 8.1475867522 200.4346455935 407.9822878312)" id="t4O0NYZP_2FkRV-pOt2kI"  >
<path style="stroke: rgb(0,0,0); stroke-width: 3; stroke-dasharray: none; stroke-linecap: butt; stroke-dashoffset: 0; stroke-linejoin: miter; stroke-miterlimit: 4; fill: rgb(255,255,255); fill-opacity: 0; fill-rule: nonzero; opacity: 1;"  transform=" translate(0, 0)" d="M 5.57715 -5.78506 C 5.57715 -5.78506 8.76371 5.641590000000001 -5.87044 5.78506" stroke-linecap="round" />
</g>
<g transform="matrix(3.7828304456 0 0 3.4257555503 249.8797504409 115.7178866975)" id="GDPbFDEQM43IvqM8tSrer"  >
<path style="stroke: rgb(93,177,157); stroke-width: 0; stroke-dasharray: none; stroke-linecap: butt; stroke-dashoffset: 0; stroke-linejoin: miter; stroke-miterlimit: 4; fill: rgb(179,149,101); fill-rule: nonzero; opacity: 1;"  transform=" translate(0, 0)" d="M -20.44476 -20.44476 L 20.444770000000002 -20.44476 L 20.444770000000002 20.444770000000002 L -20.44476 20.444770000000002 z" stroke-linecap="round" />
</g>
<g transform="matrix(3.4117301698 0 0 3.4117301698 249.8797504458 328.7377505183)" id="c5LMzKajON2CERPch_Pg9"  >
<path style="stroke: none; stroke-width: 1; stroke-dasharray: none; stroke-linecap: butt; stroke-dashoffset: 0; stroke-linejoin: miter; stroke-miterlimit: 4; fill: rgb(179,149,101); fill-rule: nonzero; opacity: 1;"  transform=" translate(-32.77459, -14.976485)" d="M 16.38729 23.33076 L 0 0 L 65.54918 0 L 44.51052000000001 29.95297 L 21.038670000000007 29.95297 z" stroke-linecap="round" />
</g>
<g transform="matrix(8.0005064958 0 0 3.4117301698 249.8797504409 230.1386950079)" id="tF35soTATvk11my56AGdK"  >
<path style="stroke: rgb(245,224,101); stroke-width: 0; stroke-dasharray: none; stroke-linecap: butt; stroke-dashoffset: 0; stroke-linejoin: miter; stroke-miterlimit: 4; fill: rgb(179,149,101); fill-rule: nonzero; opacity: 1;"  transform=" translate(0, 0)" d="M -14.3472 -14.3472 L 14.3472 -14.3472 L 14.3472 14.3472 L -14.3472 14.3472 z" stroke-linecap="round" />
</g>
<g transform="matrix(3.4117301698 0 0 11.8147926824 149.2900239157 230.3476182563)" id="PcyL0Jg4j5jc2Lg56Ec61"  >
<path style="stroke: rgb(195,127,146); stroke-width: 0; stroke-dasharray: none; stroke-linecap: butt; stroke-dashoffset: 0; stroke-linejoin: miter; stroke-miterlimit: 4; fill: rgb(84,65,34); fill-rule: nonzero; opacity: 0.67;"  transform=" translate(0, 0)" d="M -4.16069 -4.16069 L 4.16069 -4.16069 L 4.16069 4.16069 L -4.16069 4.16069 z" stroke-linecap="round" />
</g>
<g transform="matrix(4.9753972787 0 0 11.814790617 312.7430830327 230.3476268495)" id="a-ixyhGypDJKz2PaSghzj"  >
<path style="stroke: rgb(195,127,146); stroke-width: 0; stroke-dasharray: none; stroke-linecap: butt; stroke-dashoffset: 0; stroke-linejoin: miter; stroke-miterlimit: 4; fill: rgb(123,96,51); fill-rule: nonzero; opacity: 0.67;"  transform=" translate(0, 0)" d="M -4.16069 -4.16069 L 4.16069 -4.16069 L 4.16069 4.16069 L -4.16069 4.16069 z" stroke-linecap="round" />
</g>
<g transform="matrix(5.2032145502 0 0 11.764577963 188.0788387214 230.1387075299)" id="99wFL3KhIV9nOd9mz081k"  >
<path style="stroke: rgb(195,127,146); stroke-width: 0; stroke-dasharray: none; stroke-linecap: butt; stroke-dashoffset: 0; stroke-linejoin: miter; stroke-miterlimit: 4; fill: rgb(123,96,51); fill-rule: nonzero; opacity: 0.67;"  transform=" translate(0, 0)" d="M -4.16069 -4.16069 L 4.16069 -4.16069 L 4.16069 4.16069 L -4.16069 4.16069 z" stroke-linecap="round" />
</g>
<g transform="matrix(9.166190333 0 0 11.814790617 250.8102765199 229.9297487671)" id="tQewAomKfbVxkl6qlQH8j"  >
<path style="stroke: rgb(195,127,146); stroke-width: 0; stroke-dasharray: none; stroke-linecap: butt; stroke-dashoffset: 0; stroke-linejoin: miter; stroke-miterlimit: 4; fill: rgb(140,109,60); fill-rule: nonzero; opacity: 0.67;"  transform=" translate(0, 0)" d="M -4.16069 -4.16069 L 4.16069 -4.16069 L 4.16069 4.16069 L -4.16069 4.16069 z" stroke-linecap="round" />
</g>
<g transform="matrix(3.4117301698 0 0 11.8147926824 350.7099760843 230.3476261138)" id="H3fY06I7jvA63VbSkbj9A"  >
<path style="stroke: rgb(195,127,146); stroke-width: 0; stroke-dasharray: none; stroke-linecap: butt; stroke-dashoffset: 0; stroke-linejoin: miter; stroke-miterlimit: 4; fill: rgb(84,65,34); fill-rule: nonzero; opacity: 0.67;"  transform=" translate(0, 0)" d="M -4.16069 -4.16069 L 4.16069 -4.16069 L 4.16069 4.16069 L -4.16069 4.16069 z" stroke-linecap="round" />
</g>
<g transform="matrix(8.6089764775 0 0 8.1475867522 249.5083773253 161.849912573)" id="Olw487DhNK71nQlS78kuj"  >
<path style="stroke: rgb(135,109,67); stroke-width: 1; stroke-dasharray: none; stroke-linecap: butt; stroke-dashoffset: 0; stroke-linejoin: miter; stroke-miterlimit: 4; fill: rgb(0,0,0); fill-opacity: 0; fill-rule: nonzero; opacity: 1;"  transform=" translate(0, 0)" d="M -9.49227 1.37371 L 9.49227 -1.37371" stroke-linecap="round" />
</g>
<g transform="matrix(8.6089764775 0 0 8.1475867522 249.508395175 133.7475541488)" id="8SkFXt4nN18AkWr3W2EBq"  >
<path style="stroke: rgb(135,109,67); stroke-width: 1; stroke-dasharray: none; stroke-linecap: butt; stroke-dashoffset: 0; stroke-linejoin: miter; stroke-miterlimit: 4; fill: rgb(0,0,0); fill-opacity: 0; fill-rule: nonzero; opacity: 1;"  transform=" translate(0, 0)" d="M -9.49227 1.37371 L 9.49227 -1.37371" stroke-linecap="round" />
</g>
<g transform="matrix(8.6089764775 0 0 8.1475867522 249.5084130247 105.6451957247)" id="1nehED-eZ4SPX9eJVsaGd"  >
<path style="stroke: rgb(135,109,67); stroke-width: 1; stroke-dasharray: none; stroke-linecap: butt; stroke-dashoffset: 0; stroke-linejoin: miter; stroke-miterlimit: 4; fill: rgb(0,0,0); fill-opacity: 0; fill-rule: nonzero; opacity: 1;"  transform=" translate(0, 0)" d="M -9.49227 1.37371 L 9.49227 -1.37371" stroke-linecap="round" />
</g>
<g transform="matrix(8.6089764775 0 0 8.1475867522 250.4916070941 77.5428373013)" id="f-v68kAAHZ7xMECChABrr"  >
<path style="stroke: rgb(135,109,67); stroke-width: 1; stroke-dasharray: none; stroke-linecap: butt; stroke-dashoffset: 0; stroke-linejoin: miter; stroke-miterlimit: 4; fill: rgb(0,0,0); fill-opacity: 0; fill-rule: nonzero; opacity: 1;"  transform=" translate(0, 0)" d="M -9.49227 1.37371 L 9.49227 -1.37371" stroke-linecap="round" />
</g>
</svg>