<?xml version="1.0" encoding="UTF-8" standalone="no" ?>
<!DOCTYPE svg PUBLIC "-//W3C//DTD SVG 1.1//EN" "http://www.w3.org/Graphics/SVG/1.1/DTD/svg11.dtd">
<svg xmlns="http://www.w3.org/2000/svg" xmlns:xlink="http://www.w3.org/1999/xlink" version="1.1" width="180.159118346696" height="180.15826456872855" viewBox="150.35111088820497 109.82330947505898 180.159118346696 180.15826456872855" xml:space="preserve">
<desc>Created with Fabric.js 5.3.0</desc>
<defs>
</defs>
<g transform="matrix(1.538972807 0.6851948396 -0.6851948396 1.538972807 240.4306700616 199.9024417594)" id="uObkfbE5dHIucmgxTbCXZ"  >
<path style="stroke: none; stroke-width: 1; stroke-dasharray: none; stroke-linecap: butt; stroke-dashoffset: 0; stroke-linejoin: miter; stroke-miterlimit: 4; fill: rgb(179,181,179); fill-rule: nonzero; opacity: 1;"  transform=" translate(-40.0005, -40)" d="M 2.246 47.549 L 13.559000000000001 47.549 C 14.398000000000001 47.549 15.151000000000002 48.073 15.431000000000001 48.854 C 15.707 49.619 16.021 50.378 16.366 51.11 C 16.719 51.861 16.558 52.765 15.965 53.358 L 7.965 61.358 C 7.5409999999999995 61.782 7.3069999999999995 62.346 7.3069999999999995 62.946 C 7.3069999999999995 63.546 7.5409999999999995 64.11 7.965 64.53399999999999 L 15.466000000000001 72.035 C 15.89 72.459 16.454 72.693 17.054000000000002 72.693 C 17.654000000000003 72.693 18.218000000000004 72.459 18.642000000000003 72.035 L 26.642000000000003 64.035 C 27.222 63.455 28.152000000000005 63.287 28.890000000000004 63.63399999999999 C 29.623000000000005 63.97899999999999 30.383000000000003 64.294 31.146000000000004 64.568 C 31.926000000000005 64.849 32.45100000000001 65.602 32.45100000000001 66.441 L 32.45100000000001 77.754 C 32.45100000000001 78.992 33.458000000000006 80 34.696000000000005 80 L 45.304 80 C 46.542 80 47.550000000000004 78.993 47.550000000000004 77.754 L 47.550000000000004 66.441 C 47.550000000000004 65.602 48.074000000000005 64.849 48.854000000000006 64.568 C 49.61800000000001 64.29299999999999 50.37700000000001 63.979 51.111000000000004 63.634 C 51.848000000000006 63.287 52.779 63.455 53.359 64.035 L 61.359 72.035 C 61.783 72.459 62.347 72.693 62.947 72.693 C 63.547000000000004 72.693 64.111 72.459 64.535 72.035 L 72.036 64.53399999999999 C 72.46000000000001 64.10999999999999 72.694 63.54599999999999 72.694 62.94599999999999 C 72.694 62.34599999999999 72.461 61.78199999999999 72.036 61.35799999999999 L 64.036 53.35799999999999 C 63.443 52.764999999999986 63.282000000000004 51.86099999999999 63.635 51.10999999999999 C 63.979 50.37799999999999 64.294 49.61899999999999 64.569 48.85399999999999 C 64.85000000000001 48.07399999999999 65.60300000000001 47.54899999999999 66.44200000000001 47.54899999999999 L 77.75500000000001 47.54899999999999 C 78.99300000000001 47.54899999999999 80.001 46.541999999999994 80.001 45.30299999999999 L 80.001 34.696 C 80.001 33.458 78.994 32.449999999999996 77.75500000000001 32.449999999999996 L 66.441 32.449999999999996 C 65.602 32.449999999999996 64.849 31.925999999999995 64.569 31.144999999999996 C 64.293 30.379999999999995 63.979 29.620999999999995 63.634 28.888999999999996 C 63.281 28.137999999999995 63.442 27.233999999999995 64.035 26.640999999999995 L 72.035 18.640999999999995 C 72.459 18.216999999999995 72.693 17.652999999999995 72.693 17.052999999999994 C 72.693 16.452999999999992 72.459 15.888999999999994 72.035 15.464999999999993 L 64.53399999999999 7.963999999999992 C 64.10999999999999 7.539999999999992 63.54599999999999 7.305999999999992 62.94599999999999 7.305999999999992 C 62.34599999999999 7.305999999999992 61.78199999999999 7.539999999999992 61.35799999999999 7.963999999999992 L 53.35799999999999 15.963999999999992 C 52.77799999999999 16.54399999999999 51.84799999999999 16.711999999999993 51.10999999999999 16.36499999999999 C 50.376999999999995 16.019999999999992 49.61699999999999 15.704999999999991 48.85399999999999 15.430999999999992 C 48.07399999999999 15.149999999999991 47.54899999999999 14.396999999999991 47.54899999999999 13.557999999999993 L 47.54899999999999 2.246 C 47.549 1.007 46.542 0 45.304 0 L 34.696 0 C 33.458 0 32.449999999999996 1.007 32.449999999999996 2.246 L 32.449999999999996 13.559000000000001 C 32.449999999999996 14.398000000000001 31.925999999999995 15.151000000000002 31.145999999999997 15.432 C 30.381999999999998 15.707 29.622999999999998 16.021 28.888999999999996 16.366 C 28.151999999999997 16.713 27.220999999999997 16.544999999999998 26.640999999999995 15.965 L 18.640999999999995 7.965 C 18.216999999999995 7.5409999999999995 17.652999999999995 7.3069999999999995 17.052999999999994 7.3069999999999995 C 16.452999999999992 7.3069999999999995 15.888999999999994 7.5409999999999995 15.464999999999993 7.965 L 7.963999999999992 15.466000000000001 C 7.539999999999992 15.89 7.305999999999992 16.454 7.305999999999992 17.054000000000002 C 7.305999999999992 17.654000000000003 7.538999999999992 18.218000000000004 7.963999999999992 18.642000000000003 L 15.963999999999992 26.642000000000003 C 16.55699999999999 27.235000000000003 16.717999999999993 28.139000000000003 16.36499999999999 28.890000000000004 C 16.02099999999999 29.622000000000003 15.70599999999999 30.381000000000004 15.430999999999992 31.146000000000004 C 15.149999999999991 31.926000000000005 14.396999999999991 32.45100000000001 13.557999999999993 32.45100000000001 L 2.246 32.45100000000001 C 1.007 32.451 0 33.458 0 34.696 L 0 45.304 C 0 46.542 1.007 47.549 2.246 47.549 z M 40 27.717 C 46.784 27.717 52.283 33.216 52.283 40 C 52.283 46.784 46.784 52.283 40 52.283 C 33.216 52.283 27.717 46.784 27.717 40 C 27.717 33.216 33.216 27.717 40 27.717 z" stroke-linecap="round" />
</g>
<g transform="matrix(1.2166063887 0 0 1.1017665604 240.0459978304 166.0424443409)" id="9Zk-RniwQLkUP5kizxR9X"  >
<path style="stroke: rgb(93,177,157); stroke-width: 0; stroke-dasharray: none; stroke-linecap: butt; stroke-dashoffset: 0; stroke-linejoin: miter; stroke-miterlimit: 4; fill: rgb(179,149,101); fill-rule: nonzero; opacity: 1;"  transform=" translate(0, 0)" d="M -20.44476 -20.44476 L 20.444770000000002 -20.44476 L 20.444770000000002 20.444770000000002 L -20.44476 20.444770000000002 z" stroke-linecap="round" />
</g>
<g transform="matrix(1.0972558196 0 0 1.0972558196 240.045997832 234.5523421439)" id="ZdDhTL5UMVhauWygU7VIm"  >
<path style="stroke: none; stroke-width: 1; stroke-dasharray: none; stroke-linecap: butt; stroke-dashoffset: 0; stroke-linejoin: miter; stroke-miterlimit: 4; fill: rgb(179,149,101); fill-rule: nonzero; opacity: 1;"  transform=" translate(-32.77459, -14.976485)" d="M 16.38729 23.33076 L 0 0 L 65.54918 0 L 44.51052000000001 29.95297 L 21.038670000000007 29.95297 z" stroke-linecap="round" />
</g>
<g transform="matrix(2.573064655 0 0 1.0972558196 240.0459978304 202.8416317184)" id="0lnsOiTYeDdUtjToPI4EK"  >
<path style="stroke: rgb(245,224,101); stroke-width: 0; stroke-dasharray: none; stroke-linecap: butt; stroke-dashoffset: 0; stroke-linejoin: miter; stroke-miterlimit: 4; fill: rgb(179,149,101); fill-rule: nonzero; opacity: 1;"  transform=" translate(0, 0)" d="M -14.3472 -14.3472 L 14.3472 -14.3472 L 14.3472 14.3472 L -14.3472 14.3472 z" stroke-linecap="round" />
</g>
<g transform="matrix(1.0972558196 0 0 3.79978761 207.6950622854 202.9088240926)" id="pWUhR-XGb2myN8WPArZiV"  >
<path style="stroke: rgb(195,127,146); stroke-width: 0; stroke-dasharray: none; stroke-linecap: butt; stroke-dashoffset: 0; stroke-linejoin: miter; stroke-miterlimit: 4; fill: rgb(84,65,34); fill-rule: nonzero; opacity: 0.67;"  transform=" translate(0, 0)" d="M -4.16069 -4.16069 L 4.16069 -4.16069 L 4.16069 4.16069 L -4.16069 4.16069 z" stroke-linecap="round" />
</g>
<g transform="matrix(1.6001510516 0 0 3.7997869458 260.2636452092 202.9088268563)" id="7bMB3WPyOnIRthPfSJvNn"  >
<path style="stroke: rgb(195,127,146); stroke-width: 0; stroke-dasharray: none; stroke-linecap: butt; stroke-dashoffset: 0; stroke-linejoin: miter; stroke-miterlimit: 4; fill: rgb(123,96,51); fill-rule: nonzero; opacity: 0.67;"  transform=" translate(0, 0)" d="M -4.16069 -4.16069 L 4.16069 -4.16069 L 4.16069 4.16069 L -4.16069 4.16069 z" stroke-linecap="round" />
</g>
<g transform="matrix(1.6734199839 0 0 3.7836379175 220.170038518 202.8416357457)" id="a6G2idLUe7ltRAit314sO"  >
<path style="stroke: rgb(195,127,146); stroke-width: 0; stroke-dasharray: none; stroke-linecap: butt; stroke-dashoffset: 0; stroke-linejoin: miter; stroke-miterlimit: 4; fill: rgb(123,96,51); fill-rule: nonzero; opacity: 0.67;"  transform=" translate(0, 0)" d="M -4.16069 -4.16069 L 4.16069 -4.16069 L 4.16069 4.16069 L -4.16069 4.16069 z" stroke-linecap="round" />
</g>
<g transform="matrix(2.9479634044 0 0 3.7997869458 240.3452668536 202.7744319496)" id="Vxl3GpltVKvSv8ddPOQTs"  >
<path style="stroke: rgb(195,127,146); stroke-width: 0; stroke-dasharray: none; stroke-linecap: butt; stroke-dashoffset: 0; stroke-linejoin: miter; stroke-miterlimit: 4; fill: rgb(140,109,60); fill-rule: nonzero; opacity: 0.67;"  transform=" translate(0, 0)" d="M -4.16069 -4.16069 L 4.16069 -4.16069 L 4.16069 4.16069 L -4.16069 4.16069 z" stroke-linecap="round" />
</g>
<g transform="matrix(2.7687563407 0 0 2.6203675363 239.9265595126 180.8790906587)" id="laWgvXcb8498QrPPGmIiU"  >
<path style="stroke: rgb(135,109,67); stroke-width: 1; stroke-dasharray: none; stroke-linecap: butt; stroke-dashoffset: 0; stroke-linejoin: miter; stroke-miterlimit: 4; fill: rgb(0,0,0); fill-opacity: 0; fill-rule: nonzero; opacity: 1;"  transform=" translate(0, 0)" d="M -9.49227 1.37371 L 9.49227 -1.37371" stroke-linecap="round" />
</g>
<g transform="matrix(2.7687563407 0 0 2.6203675363 239.9265652533 171.8410147294)" id="GWBOfxl2jVUmq0IFb3at4"  >
<path style="stroke: rgb(135,109,67); stroke-width: 1; stroke-dasharray: none; stroke-linecap: butt; stroke-dashoffset: 0; stroke-linejoin: miter; stroke-miterlimit: 4; fill: rgb(0,0,0); fill-opacity: 0; fill-rule: nonzero; opacity: 1;"  transform=" translate(0, 0)" d="M -9.49227 1.37371 L 9.49227 -1.37371" stroke-linecap="round" />
</g>
<g transform="matrix(2.7687563407 0 0 2.6203675363 239.926570994 162.8029388001)" id="UehPL9F1_nm1feoMAM6iC"  >
<path style="stroke: rgb(135,109,67); stroke-width: 1; stroke-dasharray: none; stroke-linecap: butt; stroke-dashoffset: 0; stroke-linejoin: miter; stroke-miterlimit: 4; fill: rgb(0,0,0); fill-opacity: 0; fill-rule: nonzero; opacity: 1;"  transform=" translate(0, 0)" d="M -9.49227 1.37371 L 9.49227 -1.37371" stroke-linecap="round" />
</g>
<g transform="matrix(2.7687563407 0 0 2.6203675363 240.2427787128 153.7648628711)" id="Hs1MHp1uucNPmYvUyQmlS"  >
<path style="stroke: rgb(135,109,67); stroke-width: 1; stroke-dasharray: none; stroke-linecap: butt; stroke-dashoffset: 0; stroke-linejoin: miter; stroke-miterlimit: 4; fill: rgb(0,0,0); fill-opacity: 0; fill-rule: nonzero; opacity: 1;"  transform=" translate(0, 0)" d="M -9.49227 1.37371 L 9.49227 -1.37371" stroke-linecap="round" />
</g>
</svg>